<mxfile host="app.diagrams.net" modified="2023-05-22T08:10:48.008Z" agent="Mozilla/5.0 (Windows NT 10.0; Win64; x64; rv:109.0) Gecko/20100101 Firefox/113.0" version="21.2.9" etag="AY1IcjkfbIcnLSDpztYu" type="github">
  <diagram name="Page-1" id="ywP7yZrH698e5ii8Rh-N">
    <mxGraphModel>
      <root>
        <mxCell id="0" />
        <mxCell id="1" parent="0" />
      </root>
    </mxGraphModel>
  </diagram>
</mxfile>
